<svg id="Layer_1" enable-background="new 0 0 512 512" height="512" viewBox="0 0 512 512" width="512" xmlns="http://www.w3.org/2000/svg"><g><path d="m488.733 343.709c7.949-24.132 12.265-49.914 12.265-76.708 0-135.309-109.689-244.999-244.999-244.999s-244.998 109.69-244.998 244.999c0 47.329 13.434 91.514 36.677 128.975 20.13 1.683 268.809 20.667 441.055-52.267z" fill="#46d8fc"/><path d="m366.773 360.665c.412.264.663.717.673 1.213.01.467.235.903.612 1.18 1.344.985 4.055 3.196 7.126 6.933.6.73 1.718.73 2.317.001 3.079-3.742 5.782-5.948 7.119-6.931.376-.277.602-.714.611-1.182.009-.496.261-.95.674-1.214 2.035-2.12 43.758-22.269 37.57-48.897-4.913-8.209-6.334-19.851-6.63-28.451-4.092 4.766-8.385 8.752-12.489 11.938-7.994 6.207-17.859 9.579-28.018 9.579-10.16 0-20.025-3.372-28.018-9.579-4.103-3.186-8.397-7.173-12.489-11.938-.296 8.603-1.718 20.251-6.636 28.46-6.249 26.722 35.341 46.558 37.578 48.888z" fill="#fca870"/><path d="m335.832 283.317c-.296 8.603-1.718 20.251-6.636 28.46-4.638 19.832 17.071 35.869 29.49 43.774 13.893-16.076 15.014-40.164 14.747-50.819-9.124-.579-17.884-3.864-25.112-9.477-4.103-3.187-8.398-7.173-12.489-11.938z" fill="#fd995b"/><path d="m489.434 341.415c-5.227-.427-8.008-2.456-14.168-5.929-8.673-4.89-17.428-9.064-26.5-12.487 1.652 2.121 2.331 4.862 1.858 7.53-4.608 25.986-26.654 44.097-39.385 52.58-4.412 2.939-10.451 1.791-13.458-2.563-.128-.125-.499-1.088-1.607-1.008-.535.044-1.006.37-1.236.857-3.234 6.871-5.37 14.597-6.347 22.963-.013.115-.013.232 0 .348.403 3.453.607 7.025.607 10.617v20.574c0 2.707-2.203 4.91-4.91 4.91h-14.656c-2.707 0-4.91-2.203-4.91-4.91v-20.574c0-12.684-2.349-24.099-6.984-33.931-.229-.485-.699-.811-1.234-.855-1.102-.079-1.474.871-1.608 1.009-3.006 4.353-9.045 5.505-13.458 2.563-12.731-8.483-34.777-26.596-39.384-52.58-.473-2.668.206-5.409 1.857-7.53-9.071 3.423-17.826 7.596-26.499 12.487-6.16 3.473-8.941 5.502-14.168 5.929-71.07 5.81-60.959 99.727-60.959 99.727-6.456 23.204-8.064 43.974-7.86 59.893l28.458 8.729.001.003c3.776.509 7.579.933 11.408 1.268v-.003l20.532-.083c1.954-20.607 1.954-42.279 1.905-48.524.238 16.941 3.798 32.986 6.69 48.489l16.257-.066c98.885-9.484 180.599-77.734 209.801-169.429-.015-.001-.029-.003-.043-.004z" fill="#ffdd40"/><path d="m314.957 361.223c.294-.445.587-.88.879-1.306-6.434-8.198-11.771-18.042-13.783-29.388-.473-2.668.206-5.409 1.857-7.53-9.071 3.423-17.826 7.596-26.499 12.487-6.16 3.473-8.941 5.502-14.168 5.929-71.07 5.81-60.959 99.727-60.959 99.727-6.457 23.204-8.064 43.974-7.86 59.893l28.458 8.729.001.003c3.776.509 7.579.933 11.408 1.268v-.003l9.19-.037c0-19.714 0-68.788 0-93.978 0-31.983 24-44.017 41.333-46.479 17.335-2.462 30.143-9.315 30.143-9.315z" fill="#ffc839"/><path d="m362.792 91.134c-40.682 5.543-44.548 28.608-44.567 37.071-.004 1.775-.987 3.419-2.583 4.196-21.161 10.294-9.752 59.909-9.752 59.909 2.125.142 4.349 1.003 6.008 1.806.406-2.528 1.069-5.017 2.006-7.423.714-1.834 1.606-3.685 2.721-5.435 1.935-3.036 2.817-6.618 2.554-10.198-.761-10.351-.394-30.746 13.268-36.893 11.574-5.208 25.773-2.192 34.827.819 5.88 1.955 12.25 1.955 18.13 0 9.054-3.011 23.252-6.027 34.827-.819 13.623 6.13 14.027 26.427 13.275 36.805-.262 3.608.596 7.227 2.546 10.286 1.151 1.806 2.065 3.721 2.79 5.612.901 2.351 1.542 4.78 1.938 7.246 2.091-1.013 5.08-2.117 7.637-1.755.313-10.849 1.314-22.544 1.314-22.544 12.056-59.047-43.136-84.651-86.939-78.683z" fill="#024788"/><path d="m376.321 90.299c-4.572-.043-9.109.232-13.529.835-40.682 5.543-44.549 28.608-44.567 37.071-.004 1.775-.987 3.419-2.582 4.196-21.161 10.294-9.752 59.909-9.752 59.909 2.125.142 4.349 1.003 6.008 1.806.406-2.528 1.07-5.017 2.006-7.423.714-1.834 1.606-3.685 2.721-5.435 1.935-3.036 2.817-6.618 2.554-10.198-.76-10.351-.394-30.746 13.268-36.893 11.574-5.208 25.772-2.192 34.827.819.073.024.148.04.221.064-.104-.156-.203-.312-.31-.469-19.28-28.279 8.372-43.859 9.135-44.282z" fill="#003060"/><path d="m452.989 193.769c-3.169-2.904-9.48-1.432-12.209.346.598 3.723.632 7.532.115 11.293l-3.221 23.455c0 1.891-.06 3.746-.169 5.568 7.853 2.369 11.753-4.681 12.41-9.519.283-2.083.745-4.135 1.387-6.138 2.09-6.525 9.626-17.73 1.687-25.005z" fill="#fca870"/><path d="m447.026 213.514c-2.588 0-4.978-.827-6.938-2.219l-2.412 17.568c0 1.891-.06 3.746-.169 5.568 7.853 2.369 11.753-4.681 12.41-9.519.283-2.083.745-4.135 1.387-6.138.704-2.197 2.024-4.925 3.163-7.855-2.047 1.62-4.628 2.595-7.441 2.595z" fill="#fd995b"/><path d="m299.689 193.769c3.169-2.904 9.48-1.432 12.209.346-.598 3.723-.632 7.532-.115 11.293l3.22 23.455c0 1.891.06 3.746.169 5.568-7.853 2.369-11.753-4.681-12.41-9.519-.283-2.083-.745-4.135-1.387-6.138-2.089-6.525-9.625-17.73-1.686-25.005z" fill="#fca870"/><path d="m312.552 211.014c-2.027 1.561-4.558 2.499-7.313 2.499-2.55 0-4.911-.801-6.855-2.157 1.098 2.763 2.323 5.33 2.991 7.417.641 2.003 1.104 4.056 1.387 6.138.657 4.838 4.558 11.888 12.41 9.519-.109-1.823-.169-3.678-.169-5.568z" fill="#fd995b"/><path d="m439.177 186.74c-2.291-5.977-5.841-8.452-5.313-15.744 1.899-26.196-7.635-34.525-13.486-37.157-11.472-5.161-25.412-2.412-35.086.805-5.773 1.92-12.133 1.92-17.906 0-9.674-3.216-23.611-5.967-35.086-.805-5.862 2.637-15.408 10.984-13.479 37.247.526 7.145-2.972 9.619-5.251 15.476-2.291 5.887-3.032 12.418-2.144 18.89l3.218 23.411c0 38.672 23.397 61.015 33.457 68.826 16.502 12.816 39.853 12.91 56.475 0 10.06-7.811 33.457-30.155 33.454-68.777l3.221-23.455c.88-6.408.162-12.88-2.074-18.717z" fill="#ffc9a4"/><g><path d="m384.435 297.689c-10.06-7.81-33.457-30.154-33.457-68.826l-3.218-23.411c-.889-6.471-.147-13.003 2.143-18.89 2.279-5.857 5.777-8.331 5.251-15.476-1.777-24.194 6.182-33.179 12.03-36.507-9.666-3.188-23.488-5.867-34.885-.74-5.862 2.637-15.408 10.984-13.479 37.247.526 7.145-2.972 9.619-5.251 15.476-2.291 5.887-3.033 12.418-2.144 18.89l3.218 23.411c0 38.672 23.397 61.015 33.457 68.826 13.38 10.391 31.262 12.417 46.409 5.931-3.542-1.516-6.933-3.492-10.074-5.931z" fill="#feb98a"/></g><g><path d="m219.353 314.032c-1.123-11.516-14.373-13.881-14.696-25.508-.005-.183 0-.364.002-.545h-136.434c.002.182.007.362.002.545-.322 11.627-13.572 13.992-14.696 25.508-.675 6.921 3.525 12.528 7.287 16.718 3.763 4.191 7.944 9.856 7.212 16.764-.822 7.769-7.228 11.158-9.812 18.018-2.672 7.095-.494 16.482 3.523 21.996 4.017 5.515 9.428 8.072 14.65 10.471h58.55 3 58.551c5.222-2.4 10.633-4.957 14.65-10.471s6.195-14.901 3.523-21.996c-2.584-6.861-8.99-10.249-9.812-18.018-.731-6.908 3.45-12.573 7.212-16.764 3.764-4.191 7.964-9.797 7.288-16.718z" fill="#024788"/></g><g><path d="m204.854 347.513c-21.962 9.847-26.401-9.327-26.401-9.327l-42.001-50.208h-68.227c.002.182.007.362.002.545-.322 11.627-13.572 13.992-14.696 25.508-.675 6.921 3.525 12.528 7.287 16.718 3.763 4.191 7.944 9.856 7.212 16.764-.822 7.769-7.228 11.158-9.812 18.018-2.673 7.095-.494 16.482 3.523 21.996 4.017 5.515 9.428 8.072 14.65 10.471h58.55 3 58.55c5.222-2.4 10.633-4.957 14.65-10.471s6.195-14.901 3.523-21.996c-2.582-6.86-8.988-10.248-9.81-18.018z" fill="#003060"/></g><path d="m79.337 259.302c.841-2.749 1.97-5.101 3.473-6.793 1.36-1.532 2.108-3.32 2.162-5.175 0 0 5.973-27.217 28.62-28.628 0 0 15.36-2.929 28.916 19.325 11.245 18.46 37.847 24.718 51.809 21.375 3.054-1.941 8.208-3.049 11.771-1.772.001-16.217.001-22.824.001-25.245 0-.88 0-1.209 0-1.244 0-35.133-28.142-64.987-69.175-64.987-40.791 0-69.176 29.755-69.176 64.987v26.489c3.497-1.252 8.526-.206 11.599 1.668z" fill="#024788"/><path d="m157.351 168.834c-6.358-1.727-13.192-2.675-20.439-2.675-40.791 0-69.176 29.755-69.176 64.987v26.489c3.498-1.253 8.527-.207 11.6 1.667.841-2.749 1.971-5.101 3.473-6.793 1.36-1.532 2.107-3.32 2.162-5.175 0 0 5.973-27.217 28.62-28.628 0 0 9.133-1.73 19.529 7.675-.259-.872-.539-1.753-.869-2.654-16.307-44.572 23.856-54.595 25.1-54.893z" fill="#003060"/><path d="m204.543 255.957c-3.223-2.245-8.761-.143-11.017 1.799-.129.129-.246.254-.369.381 3.538 12.958 1.284 33.112.907 35.525-.019.082-.039.163-.058.245 6.66.455 11.543-3.517 11.543-9.368 0-1.921.172-3.837.509-5.729 1.099-6.162 6.561-17.229-1.515-22.853z" fill="#fca870"/><path d="m201.02 273c-2.255 0-4.337-.728-6.039-1.95.53 10.529-.653 20.923-.917 22.614-.019.082-.039.163-.058.245 6.66.455 11.543-3.517 11.543-9.368 0-1.921.172-3.837.51-5.729.425-2.385 1.501-5.504 2.196-8.758-1.869 1.82-4.419 2.946-7.235 2.946z" fill="#fd995b"/><path d="m79.771 293.715c-1.377-7.997-2.527-24.062.226-34.666-.379-.421-.779-.849-1.222-1.292-2.255-1.943-7.793-4.044-11.017-1.799-8.076 5.624-2.614 16.691-1.515 22.854.337 1.892.509 3.808.509 5.729 0 6.274 5.612 10.393 13.013 9.203 0 0 .006-.016.007-.023z" fill="#fca870"/><path d="m78.421 270.844c-1.75 1.347-3.935 2.156-6.314 2.156-3.4 0-6.409-1.643-8.301-4.171.655 3.688 1.959 7.299 2.438 9.982.337 1.892.509 3.808.509 5.729 0 6.274 5.612 10.393 13.013 9.203 0 0 .005-.016.006-.023l-.002-.006c-.921-5.358-1.736-14.337-1.349-22.87z" fill="#fd995b"/><g><path d="m86.305 391.232c3.717 4.568 7.851 10.796 11.932 17.326 5.422 8.676 13.326 15.243 20.538 19.898 10.648 6.873 24.316 6.873 34.965 0 7.212-4.655 15.115-11.222 20.538-19.898 4.235-6.776 8.525-13.136 12.349-17.743 1.878-2.263 4.569-3.56 7.387-3.742-7.39-2.926-12.618-6.366-15.137-7.833-13.031-9.488-12.671-19.088-12.671-28.392-7.096 6.343-19.182 14.393-29.271 14.883-10.089-.49-22.175-8.54-29.271-14.883 0 9.303.36 18.904-12.671 28.392-2.576 1.5-7.977 5.064-15.633 8.031-.138.054-.279.104-.418.156 2.819.204 5.504 1.521 7.363 3.805z" fill="#fca870"/></g><path d="m136.942 365.73c-.002 0-.005.001-.008.001-10.089-.49-22.175-8.54-29.271-14.883 0 9.303.36 18.904-12.671 28.392-2.576 1.5-7.977 5.064-15.633 8.031-.138.054-.279.104-.418.156 2.821.204 5.506 1.521 7.365 3.805 3.718 4.568 7.851 10.796 11.933 17.326 1.947 3.115 4.216 5.953 6.655 8.533 1.203-.063 1.9-.074 1.9-.074 23.962-13.756 29.206-37.7 30.148-51.287z" fill="#fd995b"/><path d="m142.507 236.151c-13.556-22.254-28.916-19.325-28.916-19.325-22.647 1.41-28.62 28.628-28.62 28.628-.055 1.854-.803 3.643-2.162 5.175-7.493 8.444-5.852 33.113-4.104 43.27 3.872 17.089 9.48 31.989 16.666 44.289 7.296 12.486 18.345 22.197 31.952 28.084 6.095 2.636 13.083 2.636 19.177 0 13.607-5.887 24.656-15.598 31.952-28.084 7.186-12.296 12.794-27.197 16.673-44.319 1.34-8.517 2.743-25.521-.589-36.389-13.901 3.457-40.726-2.773-52.029-21.329z" fill="#ffc9a4"/><path d="m130.293 338.187c-7.187-12.3-12.795-27.2-16.666-44.289-1.748-10.156-3.389-34.826 4.104-43.27 1.36-1.532 2.108-3.321 2.163-5.175 0 0 2.915-13.236 12.359-21.726-10.031-8.547-18.66-6.902-18.66-6.902-22.647 1.41-28.62 28.628-28.62 28.628-.055 1.854-.803 3.643-2.162 5.175-7.493 8.444-5.852 33.113-4.104 43.27 3.872 17.089 9.48 31.989 16.666 44.289 7.296 12.486 18.345 22.197 31.952 28.084 6.095 2.636 13.083 2.636 19.177 0 2.732-1.182 5.355-2.525 7.872-4.007-10.017-5.899-18.251-14.098-24.081-24.077z" fill="#feb98a"/><path d="m233.152 394.98c-7.632-1.285-23.46-5.286-34.906-9.327-4.158-1.469-8.804-.232-11.62 3.161-3.824 4.608-8.114 10.968-12.349 17.744-5.422 8.676-13.326 15.243-20.538 19.898-10.649 6.873-24.316 6.873-34.965 0-7.212-4.655-15.115-11.222-20.538-19.898-4.081-6.53-8.215-12.759-11.932-17.326-2.791-3.43-7.445-4.694-11.626-3.252-8.754 3.019-20.089 6.088-28.314 7.884 37.519 61.865 101.654 105.782 176.518 115.9.854-4.6 1.617-8.945 2.243-13 .002-.012.003-.023.005-.035.481-3.119.973-6.614 1.321-10.158.29-2.954 4.567-3.082 5.042-.152.1.616.199 1.263.297 1.936 24.592-3.328 39.035-19.236 45.65-28.838-1.113-16.249-2.729-29.51-5.411-34.874-10.935-21.875-30.131-27.983-38.877-29.663z" fill="#ff4155"/><path d="m254.876 480.537c-2.814-12.88-7.528-21.68-14.644-23.061-13-2.524-13.78 29.095-13.78 29.095.29-2.954 4.567-3.082 5.042-.152.1.616.199 1.263.297 1.936 9.026-1.222 16.679-4.141 23.085-7.818z" fill="#e80054"/><path d="m106.792 417.017c-3.161-3.071-6.111-6.549-8.555-10.459-4.081-6.53-8.215-12.759-11.932-17.326-2.791-3.43-7.445-4.694-11.626-3.252-8.754 3.019-20.088 6.088-28.314 7.884 7.171 11.824 15.322 22.987 24.326 33.389 11.126-9.862 36.101-10.236 36.101-10.236z" fill="#e80054"/><path d="m386.253 363.588c-.497-.72-.624-1.578-.439-2.365h-1.178s-4.133 2.556-8.868 8.52c6.077 7.655 13.135 20.943 13.738 41.716.402-13.851 3.678-24.375 7.617-32.122z" fill="#ffb332"/><path d="m368.042 361.223h-1.178c.185.787.058 1.645-.439 2.365l-10.871 15.748c4.211 8.273 7.669 19.702 7.669 34.987v20.575c0 3.54 2.87 6.41 6.41 6.41h14.656c3.54 0 6.41-2.87 6.41-6.41v-20.575c0-39.146-22.657-53.1-22.657-53.1z" fill="#ffc839"/><path d="m367.581 359.401-11.743-7.51c-27.161-18.386-27.647-33.9-24.226-42.92 1.274-3.361-2.016-6.613-5.327-5.215-11.772 4.972-19.642 13.343-23.525 18.277-1.944 2.47-2.731 5.662-2.183 8.758 4.697 26.496 26.993 44.88 40.03 53.566 5.122 3.413 12.028 2.106 15.525-2.96l12.293-17.809c.954-1.383.572-3.282-.844-4.187z" fill="#fceca9"/><path d="m346.512 344.836c-17.885-15.276-17.874-28.025-14.9-35.865 1.274-3.361-2.016-6.613-5.327-5.215-11.772 4.972-19.643 13.343-23.525 18.277-1.944 2.47-2.732 5.662-2.183 8.758 2.092 11.802 7.679 21.989 14.38 30.432 18.809-28.444 31.554-16.383 31.554-16.383z" fill="#ffdd40"/><path d="m449.919 322.033c-3.883-4.934-11.753-13.305-23.525-18.277-3.311-1.398-6.602 1.854-5.327 5.215 3.42 9.019 2.934 24.534-24.226 42.92l-11.743 7.51c-1.416.905-1.798 2.804-.844 4.187l12.293 17.809c3.497 5.066 10.402 6.373 15.525 2.96 13.037-8.686 35.332-27.07 40.029-53.566.549-3.096-.238-6.287-2.182-8.758z" fill="#fceca9"/><path d="m382.138 406.446c0 2.859-2.318 5.178-5.178 5.178s-5.178-2.318-5.178-5.178 2.318-5.178 5.178-5.178 5.178 2.319 5.178 5.178z" fill="#fceca9"/><path d="m278.115 112.108c-11.61-12.445-31.496-11.91-42.421 1.141l-4.613 5.511c-1.217 1.453-3.277 1.872-4.964 1.007l-6.397-3.277c-15.147-7.76-33.669-.502-39.51 15.484-5.288 14.473 1.968 30.519 16.328 36.107 2.999 1.666 21.668 4.637 42.754 26.148 2.669 2.722 7.283 1.786 8.679-1.761 11.04-28.048 27.091-38.071 29.181-40.745 11.047-10.743 11.475-28.347.963-39.615z" fill="#ff4155"/><g><path d="m215.844 157.461c-13.546-7.346-18.731-24.175-11.669-37.87 1.186-2.299 2.64-4.358 4.298-6.169-12.046-.702-23.82 6.398-28.261 18.554-5.288 14.473 1.968 30.519 16.328 36.107 2.999 1.666 21.668 4.637 42.754 26.148 2.669 2.722 7.283 1.786 8.679-1.761 1.132-2.875 2.318-5.55 3.534-8.058-16.996-20.291-33.073-25.051-35.663-26.951z" fill="#f32155"/></g><path d="m310.444 43.83c-3.667-11.125-16.249-16.526-26.839-11.52l-4.472 2.114c-1.179.557-2.588.225-3.393-.802l-3.052-3.893c-7.228-9.218-20.896-10.022-29.156-1.716-7.478 7.52-7.571 19.64-.208 27.273 1.394 1.906 12.204 9.146 19.178 28.67.883 2.471 4.036 3.216 5.932 1.402 14.987-14.344 27.908-15.98 29.986-17.048 10-3.529 15.344-14.407 12.024-24.48z" fill="#ff4155"/><g><path d="m257.446 55.817c-5.802-8.878-3.44-20.765 5.315-26.751 1.993-1.362 4.14-2.295 6.338-2.837-7.562-5.733-18.525-5.298-25.568 1.784-7.479 7.52-7.571 19.64-.208 27.273 1.393 1.906 12.204 9.146 19.178 28.67.883 2.471 4.036 3.216 5.932 1.402.597-.572 1.19-1.116 1.78-1.648-3.667-17.782-11.821-25.899-12.767-27.893z" fill="#f32155"/></g><path d="m214.684 1.137c-7.367-3.237-15.904.709-18.211 8.418l-.974 3.255c-.257.858-1.074 1.425-1.968 1.364l-3.39-.229c-8.028-.542-14.717 6.07-14.268 14.104.406 7.274 6.554 12.887 13.835 12.633 1.614.164 10.277-2.033 23.452 3.372 1.667.684 3.497-.584 3.441-2.386-.443-14.243 4.656-21.594 5.064-23.146 2.791-6.729-.312-14.455-6.981-17.385z" fill="#ff4155"/><g><path d="m187.5 26.563c-.274-4.912 1.704-9.367 4.979-12.46l-2.338-.158c-8.028-.542-14.717 6.07-14.268 14.104.406 7.274 6.554 12.887 13.834 12.633.827.084 3.515-.447 7.703-.262-5.53-2.252-9.556-7.518-9.91-13.857z" fill="#f32155"/></g><path d="m279.781 510.848c-.678-17.679-1.311-37.163-2.484-53.372-5.62 8.804-19.912 26.367-45.779 29.091.418 2.598.822 5.688 1.193 9.365.504 4.992 1.043 10.115 1.581 15.099 7.154.629 14.391.969 21.708.969 8.024 0 15.954-.398 23.781-1.152z" fill="#fca870"/><path d="m258.143 511.974c-.303-12.277-1.424-23.61-3.556-32.736-6.351 3.589-13.995 6.374-23.069 7.33.418 2.598.822 5.688 1.193 9.365.504 4.992 1.043 10.115 1.581 15.099 7.154.628 14.391.968 21.708.968.717 0 1.428-.02 2.143-.026z" fill="#fd995b"/><g fill="#ff7186"><path d="m215.336 10.854c0 2.853-2.313 5.167-5.167 5.167-2.853 0-5.167-2.313-5.167-5.167s2.313-5.167 5.167-5.167c2.854.001 5.167 2.314 5.167 5.167z"/><circle cx="296.171" cy="45.24" r="6.648"/><path d="m251.968 141.782c0 3.126-2.534 5.659-5.66 5.659s-5.66-2.534-5.66-5.659c0-3.126 2.534-5.66 5.66-5.66s5.66 2.534 5.66 5.66z"/><circle cx="261.877" cy="126.213" r="9.909"/></g></g></svg>